<svg xmlns="http://www.w3.org/2000/svg" version="1.1" xmlns:xlink="http://www.w3.org/1999/xlink" xmlns:svgjs="http://svgjs.dev/svgjs" width="1000" height="623" viewBox="0 0 1000 623"><g transform="matrix(1,0,0,1,-0.6060606060606233,0.2522267206477409)"><svg viewBox="0 0 396 247" data-background-color="#ffffff" preserveAspectRatio="xMidYMid meet" height="623" width="1000" xmlns="http://www.w3.org/2000/svg" xmlns:xlink="http://www.w3.org/1999/xlink"><g id="tight-bounds" transform="matrix(1,0,0,1,0.2400000000000091,-0.09999999999999432)"><svg viewBox="0 0 395.52 247.2" height="247.2" width="395.52"><g><svg></svg></g><g><svg viewBox="0 0 395.52 247.2" height="247.2" width="395.52"><mask id="df76b3b9-96db-4c1b-914e-357ea5f472a2"><rect width="640" height="400" fill="white"></rect><g transform="matrix(1,0,0,1,39.55199999999999,100.46603823272784)"><svg viewBox="0 0 316.416 46.267923534544295" height="46.267923534544295" width="316.416"><g><svg viewBox="0 0 316.416 46.267923534544295" height="46.267923534544295" width="316.416"><g><svg viewBox="0 0 316.416 46.267923534544295" height="46.267923534544295" width="316.416"><g><svg viewBox="0 0 316.416 46.267923534544295" height="46.267923534544295" width="316.416"><g id="SvgjsG2680"><svg viewBox="0 0 316.416 46.267923534544295" height="46.267923534544295" width="316.416" id="SvgjsSvg2679"><g><svg viewBox="0 0 316.416 46.267923534544295" height="46.267923534544295" width="316.416"><g transform="matrix(1,0,0,1,0,0)"><svg width="316.416" viewBox="-0.75 -39.45 296.45 44.21" height="46.267923534544295" data-palette-color="#010c80"><path d="M31.25-10.5L31.25-10.5Q31.25-8.33 30.42-6.42 29.59-4.52 28.16-3.09 26.73-1.66 24.83-0.83 22.92 0 20.75 0L20.75 0 3.25 0 3.25-35.01 20.75-35.01Q22.92-35.01 24.83-34.18 26.73-33.35 28.16-31.92 29.59-30.49 30.42-28.59 31.25-26.68 31.25-24.51L31.25-24.51Q31.25-23.54 30.98-22.51 30.71-21.48 30.22-20.53 29.74-19.58 29.05-18.8 28.37-18.02 27.54-17.5L27.54-17.5Q28.39-17.04 29.08-16.25 29.76-15.45 30.25-14.5 30.74-13.55 30.99-12.51 31.25-11.47 31.25-10.5ZM10.25-13.99L10.25-7.01 20.75-7.01Q21.48-7.01 22.12-7.28 22.75-7.54 23.23-8.02 23.71-8.5 23.97-9.13 24.24-9.77 24.24-10.5L24.24-10.5Q24.24-11.23 23.97-11.87 23.71-12.5 23.23-12.98 22.75-13.45 22.12-13.72 21.48-13.99 20.75-13.99L20.75-13.99 10.25-13.99ZM10.25-28L10.25-21 20.75-21Q21.48-21 22.12-21.26 22.75-21.53 23.23-22.01 23.71-22.49 23.97-23.13 24.24-23.78 24.24-24.51L24.24-24.51Q24.24-25.24 23.97-25.88 23.71-26.51 23.23-26.99 22.75-27.47 22.12-27.73 21.48-28 20.75-28L20.75-28 10.25-28ZM70.85-17.36L70.85-17.36Q70.85-14.87 70.2-12.56 69.55-10.25 68.38-8.24 67.21-6.23 65.55-4.57 63.89-2.91 61.89-1.72 59.89-0.54 57.57 0.11 55.25 0.76 52.76 0.76L52.76 0.76Q50.27 0.76 47.96 0.11 45.65-0.54 43.64-1.72 41.62-2.91 39.96-4.57 38.3-6.23 37.12-8.24 35.94-10.25 35.29-12.56 34.64-14.87 34.64-17.36L34.64-17.36Q34.64-19.85 35.29-22.17 35.94-24.49 37.12-26.49 38.3-28.49 39.96-30.15 41.62-31.81 43.64-32.98 45.65-34.16 47.96-34.8 50.27-35.45 52.76-35.45L52.76-35.45Q55.25-35.45 57.57-34.8 59.89-34.16 61.89-32.98 63.89-31.81 65.55-30.15 67.21-28.49 68.38-26.49 69.55-24.49 70.2-22.17 70.85-19.85 70.85-17.36ZM63.89-17.36L63.89-17.36Q63.89-19.65 63.01-21.69 62.13-23.73 60.63-25.23 59.13-26.73 57.09-27.61 55.05-28.49 52.76-28.49L52.76-28.49Q50.44-28.49 48.41-27.61 46.38-26.73 44.87-25.23 43.36-23.73 42.48-21.69 41.6-19.65 41.6-17.36L41.6-17.36Q41.6-15.06 42.48-13.05 43.36-11.04 44.87-9.52 46.38-8.01 48.41-7.13 50.44-6.25 52.76-6.25L52.76-6.25Q55.05-6.25 57.09-7.13 59.13-8.01 60.63-9.52 62.13-11.04 63.01-13.05 63.89-15.06 63.89-17.36ZM109.74-17.36L109.74-17.36Q109.74-14.87 109.09-12.56 108.44-10.25 107.27-8.24 106.1-6.23 104.44-4.57 102.78-2.91 100.78-1.72 98.77-0.54 96.45 0.11 94.14 0.76 91.65 0.76L91.65 0.76Q89.16 0.76 86.85 0.11 84.54-0.54 82.53-1.72 80.51-2.91 78.85-4.57 77.19-6.23 76.01-8.24 74.82-10.25 74.18-12.56 73.53-14.87 73.53-17.36L73.53-17.36Q73.53-19.85 74.18-22.17 74.82-24.49 76.01-26.49 77.19-28.49 78.85-30.15 80.51-31.81 82.53-32.98 84.54-34.16 86.85-34.8 89.16-35.45 91.65-35.45L91.65-35.45Q94.14-35.45 96.45-34.8 98.77-34.16 100.78-32.98 102.78-31.81 104.44-30.15 106.1-28.49 107.27-26.49 108.44-24.49 109.09-22.17 109.74-19.85 109.74-17.36ZM102.78-17.36L102.78-17.36Q102.78-19.65 101.9-21.69 101.02-23.73 99.52-25.23 98.02-26.73 95.98-27.61 93.94-28.49 91.65-28.49L91.65-28.49Q89.33-28.49 87.3-27.61 85.27-26.73 83.76-25.23 82.25-23.73 81.37-21.69 80.49-19.65 80.49-17.36L80.49-17.36Q80.49-15.06 81.37-13.05 82.25-11.04 83.76-9.52 85.27-8.01 87.3-7.13 89.33-6.25 91.65-6.25L91.65-6.25Q93.94-6.25 95.98-7.13 98.02-8.01 99.52-9.52 101.02-11.04 101.9-13.05 102.78-15.06 102.78-17.36ZM121.33-7.01L121.33 0 114.32 0 114.32-35.01 121.33-35.01 121.33-17.5 134.37-35.01 142.33-35.01 131.27-20.24 142.33 0 134.37 0 126.68-14.16 121.33-7.01ZM164.32-35.01L172.33-35.01 160.83 0 153.82 0 142.37-35.01 150.33-35.01 157.31-11.65 164.32-35.01ZM199.67-7.01L199.67 0 175.67 0 175.67-35.01 199.67-35.01 199.67-28 182.68-28 182.68-21 194.18-21 194.18-13.99 182.68-13.99 182.68-7.01 199.67-7.01ZM218.59-28L211.58-28 211.58-13.99 218.59-13.99Q220.03-13.99 221.3-14.54 222.57-15.09 223.52-16.04 224.47-16.99 225.02-18.27 225.57-19.56 225.57-21L225.57-21Q225.57-22.44 225.02-23.72 224.47-25 223.52-25.95 222.57-26.9 221.3-27.45 220.03-28 218.59-28L218.59-28ZM211.58-7.01L211.58 0 204.57 0 204.57-35.01 218.59-35.01Q220.52-35.01 222.3-34.51 224.08-34.01 225.63-33.09 227.18-32.18 228.46-30.9 229.75-29.61 230.66-28.05 231.58-26.49 232.08-24.71 232.58-22.92 232.58-21L232.58-21Q232.58-19.19 232.13-17.48 231.67-15.77 230.83-14.23 229.99-12.7 228.77-11.4 227.55-10.11 226.03-9.16L226.03-9.16 229.92 0 222.47 0 219.42-7.06 211.58-7.01ZM235.11-24.51L235.11-24.51Q235.11-26.68 235.94-28.59 236.77-30.49 238.2-31.92 239.63-33.35 241.54-34.18 243.44-35.01 245.61-35.01L245.61-35.01 261.68-35.01 261.68-28 245.61-28Q244.88-28 244.25-27.73 243.61-27.47 243.13-26.99 242.66-26.51 242.39-25.88 242.12-25.24 242.12-24.51L242.12-24.51Q242.12-23.78 242.39-23.13 242.66-22.49 243.13-22.01 243.61-21.53 244.25-21.26 244.88-21 245.61-21L245.61-21 252.62-21Q254.79-21 256.71-20.18 258.63-19.36 260.05-17.93 261.48-16.5 262.3-14.59 263.12-12.67 263.12-10.5L263.12-10.5Q263.12-8.33 262.3-6.42 261.48-4.52 260.05-3.09 258.63-1.66 256.71-0.83 254.79 0 252.62 0L252.62 0 237.07 0 237.07-7.01 252.62-7.01Q253.35-7.01 253.99-7.28 254.62-7.54 255.1-8.02 255.57-8.5 255.84-9.13 256.11-9.77 256.11-10.5L256.11-10.5Q256.11-11.23 255.84-11.87 255.57-12.5 255.1-12.98 254.62-13.45 253.99-13.72 253.35-13.99 252.62-13.99L252.62-13.99 245.61-13.99Q243.44-13.99 241.54-14.82 239.63-15.65 238.2-17.08 236.77-18.51 235.94-20.42 235.11-22.34 235.11-24.51ZM291.7-7.01L291.7 0 267.7 0 267.7-35.01 291.7-35.01 291.7-28 274.71-28 274.71-21 286.21-21 286.21-13.99 274.71-13.99 274.71-7.01 291.7-7.01Z" opacity="1" transform="matrix(1,0,0,1,0,0)" fill="black" class="wordmark-text-0" id="SvgjsPath2678" stroke-width="7" stroke="black" stroke-linejoin="round"></path></svg></g></svg></g></svg></g></svg></g></svg></g></svg></g></svg></g></mask><g transform="matrix(1,0,0,1,39.55199999999999,100.46603823272784)"><svg viewBox="0 0 316.416 46.267923534544295" height="46.267923534544295" width="316.416"><g><svg viewBox="0 0 316.416 46.267923534544295" height="46.267923534544295" width="316.416"><g><svg viewBox="0 0 316.416 46.267923534544295" height="46.267923534544295" width="316.416"><g><svg viewBox="0 0 316.416 46.267923534544295" height="46.267923534544295" width="316.416"><g id="textblocktransform"><svg viewBox="0 0 316.416 46.267923534544295" height="46.267923534544295" width="316.416" id="textblock"><g><svg viewBox="0 0 316.416 46.267923534544295" height="46.267923534544295" width="316.416"><g transform="matrix(1,0,0,1,0,0)"><svg width="316.416" viewBox="-0.75 -39.45 296.45 44.21" height="46.267923534544295" data-palette-color="#010c80"><path d="M31.25-10.5L31.25-10.5Q31.25-8.33 30.42-6.42 29.59-4.52 28.16-3.09 26.73-1.66 24.83-0.83 22.92 0 20.75 0L20.75 0 3.25 0 3.25-35.01 20.75-35.01Q22.92-35.01 24.83-34.18 26.73-33.35 28.16-31.92 29.59-30.49 30.42-28.59 31.25-26.68 31.25-24.51L31.25-24.51Q31.25-23.54 30.98-22.51 30.71-21.48 30.22-20.53 29.74-19.58 29.05-18.8 28.37-18.02 27.54-17.5L27.54-17.5Q28.39-17.04 29.08-16.25 29.76-15.45 30.25-14.5 30.74-13.55 30.99-12.51 31.25-11.47 31.25-10.5ZM10.25-13.99L10.25-7.01 20.75-7.01Q21.48-7.01 22.12-7.28 22.75-7.54 23.23-8.02 23.71-8.5 23.97-9.13 24.24-9.77 24.24-10.5L24.24-10.5Q24.24-11.23 23.97-11.87 23.71-12.5 23.23-12.98 22.75-13.45 22.12-13.72 21.48-13.99 20.75-13.99L20.75-13.99 10.25-13.99ZM10.25-28L10.25-21 20.75-21Q21.48-21 22.12-21.26 22.75-21.53 23.23-22.01 23.71-22.49 23.97-23.13 24.24-23.78 24.24-24.51L24.24-24.51Q24.24-25.24 23.97-25.88 23.71-26.51 23.23-26.99 22.75-27.47 22.12-27.73 21.48-28 20.75-28L20.75-28 10.25-28ZM70.85-17.36L70.85-17.36Q70.85-14.87 70.2-12.56 69.55-10.25 68.38-8.24 67.21-6.23 65.55-4.57 63.89-2.91 61.89-1.72 59.89-0.54 57.57 0.11 55.25 0.76 52.76 0.76L52.76 0.76Q50.27 0.76 47.96 0.11 45.65-0.54 43.64-1.72 41.62-2.91 39.96-4.57 38.3-6.23 37.12-8.24 35.94-10.25 35.29-12.56 34.64-14.87 34.64-17.36L34.64-17.36Q34.64-19.85 35.29-22.17 35.94-24.49 37.12-26.49 38.3-28.49 39.96-30.15 41.62-31.81 43.64-32.98 45.65-34.16 47.96-34.8 50.27-35.45 52.76-35.45L52.76-35.45Q55.25-35.45 57.57-34.8 59.89-34.16 61.89-32.98 63.89-31.81 65.55-30.15 67.21-28.49 68.38-26.49 69.55-24.49 70.2-22.17 70.85-19.85 70.85-17.36ZM63.89-17.36L63.89-17.36Q63.89-19.65 63.01-21.69 62.13-23.73 60.63-25.23 59.13-26.73 57.09-27.61 55.05-28.49 52.76-28.49L52.76-28.49Q50.44-28.49 48.41-27.61 46.38-26.73 44.87-25.23 43.36-23.73 42.48-21.69 41.6-19.65 41.6-17.36L41.6-17.36Q41.6-15.06 42.48-13.05 43.36-11.04 44.87-9.52 46.38-8.01 48.41-7.13 50.44-6.25 52.76-6.25L52.76-6.25Q55.05-6.25 57.09-7.13 59.13-8.01 60.63-9.52 62.13-11.04 63.01-13.05 63.89-15.06 63.89-17.36ZM109.74-17.36L109.74-17.36Q109.74-14.87 109.09-12.56 108.44-10.25 107.27-8.24 106.1-6.23 104.44-4.57 102.78-2.91 100.78-1.72 98.77-0.54 96.45 0.11 94.14 0.76 91.65 0.76L91.65 0.76Q89.16 0.76 86.85 0.11 84.54-0.54 82.53-1.72 80.51-2.91 78.85-4.57 77.19-6.23 76.01-8.24 74.82-10.25 74.18-12.56 73.53-14.87 73.53-17.36L73.53-17.36Q73.53-19.85 74.18-22.17 74.82-24.49 76.01-26.49 77.19-28.49 78.85-30.15 80.51-31.81 82.53-32.98 84.54-34.16 86.85-34.8 89.16-35.45 91.65-35.45L91.65-35.45Q94.14-35.45 96.45-34.8 98.77-34.16 100.78-32.98 102.78-31.81 104.44-30.15 106.1-28.49 107.27-26.49 108.44-24.49 109.09-22.17 109.74-19.85 109.74-17.36ZM102.78-17.36L102.78-17.36Q102.78-19.65 101.9-21.69 101.02-23.73 99.52-25.23 98.02-26.73 95.98-27.61 93.94-28.49 91.65-28.49L91.65-28.49Q89.33-28.49 87.3-27.61 85.27-26.73 83.76-25.23 82.25-23.73 81.37-21.69 80.49-19.65 80.49-17.36L80.49-17.36Q80.49-15.06 81.37-13.05 82.25-11.04 83.76-9.52 85.27-8.01 87.3-7.13 89.33-6.25 91.65-6.25L91.65-6.25Q93.94-6.25 95.98-7.13 98.02-8.01 99.52-9.52 101.02-11.04 101.9-13.05 102.78-15.06 102.78-17.36ZM121.33-7.01L121.33 0 114.32 0 114.32-35.01 121.33-35.01 121.33-17.5 134.37-35.01 142.33-35.01 131.27-20.24 142.33 0 134.37 0 126.68-14.16 121.33-7.01ZM164.32-35.01L172.33-35.01 160.83 0 153.82 0 142.37-35.01 150.33-35.01 157.31-11.65 164.32-35.01ZM199.67-7.01L199.67 0 175.67 0 175.67-35.01 199.67-35.01 199.67-28 182.68-28 182.68-21 194.18-21 194.18-13.99 182.68-13.99 182.68-7.01 199.67-7.01ZM218.59-28L211.58-28 211.58-13.99 218.59-13.99Q220.03-13.99 221.3-14.54 222.57-15.09 223.52-16.04 224.47-16.99 225.02-18.27 225.57-19.56 225.57-21L225.57-21Q225.57-22.44 225.02-23.72 224.47-25 223.52-25.95 222.57-26.9 221.3-27.45 220.03-28 218.59-28L218.59-28ZM211.58-7.01L211.58 0 204.57 0 204.57-35.01 218.59-35.01Q220.52-35.01 222.3-34.51 224.08-34.01 225.63-33.09 227.18-32.18 228.46-30.9 229.75-29.61 230.66-28.05 231.58-26.49 232.08-24.71 232.58-22.92 232.58-21L232.58-21Q232.58-19.19 232.13-17.48 231.67-15.77 230.83-14.23 229.99-12.7 228.77-11.4 227.55-10.11 226.03-9.16L226.03-9.16 229.92 0 222.47 0 219.42-7.06 211.58-7.01ZM235.11-24.51L235.11-24.51Q235.11-26.68 235.94-28.59 236.77-30.49 238.2-31.92 239.63-33.35 241.54-34.18 243.44-35.01 245.61-35.01L245.61-35.01 261.68-35.01 261.68-28 245.61-28Q244.88-28 244.25-27.73 243.61-27.47 243.13-26.99 242.66-26.51 242.39-25.88 242.12-25.24 242.12-24.51L242.12-24.51Q242.12-23.78 242.39-23.13 242.66-22.49 243.13-22.01 243.61-21.53 244.25-21.26 244.88-21 245.61-21L245.61-21 252.62-21Q254.79-21 256.71-20.18 258.63-19.36 260.05-17.93 261.48-16.5 262.3-14.59 263.12-12.67 263.12-10.5L263.12-10.5Q263.12-8.33 262.3-6.42 261.48-4.52 260.05-3.09 258.63-1.66 256.71-0.83 254.79 0 252.62 0L252.62 0 237.07 0 237.07-7.01 252.62-7.01Q253.35-7.01 253.99-7.28 254.62-7.54 255.1-8.02 255.57-8.5 255.84-9.13 256.11-9.77 256.11-10.5L256.11-10.5Q256.11-11.23 255.84-11.87 255.57-12.5 255.1-12.98 254.62-13.45 253.99-13.72 253.35-13.99 252.62-13.99L252.62-13.99 245.61-13.99Q243.44-13.99 241.54-14.82 239.63-15.65 238.2-17.08 236.77-18.51 235.94-20.42 235.11-22.34 235.11-24.51ZM291.7-7.01L291.7 0 267.7 0 267.7-35.01 291.7-35.01 291.7-28 274.71-28 274.71-21 286.21-21 286.21-13.99 274.71-13.99 274.71-7.01 291.7-7.01Z" opacity="1" transform="matrix(1,0,0,1,0,0)" fill="#010c80" class="wordmark-text-0" data-fill-palette-color="primary" id="text-0"></path></svg></g></svg></g></svg></g></svg></g></svg></g></svg></g></svg></g><g mask="url(#df76b3b9-96db-4c1b-914e-357ea5f472a2)"><g transform="matrix(2.452, 0, 0, 2.452, 105.27914142848094, 1)"><svg version="1.1" xmlns="http://www.w3.org/2000/svg" xmlns:xlink="http://www.w3.org/1999/xlink" x="0" y="0" viewBox="0 0 75.43300046616562 100" enable-background="new 0 0 75.433 100" xml:space="preserve" width="75.43300046616562" height="100" class="icon-none" data-fill-palette-color="accent" id="none"><path fill="#77d4fc" d="M8.431 8.148" data-fill-palette-color="accent"></path><path fill="#77d4fc" d="M71.862 0H22.39c-1.965 0-5.181 0-7.145 0h-5.52C7.761 0 4.947 1.064 3.473 2.362L2.681 3.06C1.206 4.36 0 7.031 0 8.995v2.727 0.593 84.113C0 98.392 1.608 100 3.572 100h62.132c1.967 0 3.572-1.608 3.572-3.572V11.722c0-1.965-1.605-3.572-3.572-3.572H24.172c0-1.301-1.055-2.355-2.353-2.355s-2.35 1.054-2.35 2.355v0.923 23.594l-5.917-5.777-5.12 5.777V8.148h-4.86c-0.026 0-0.049 0.006-0.075 0.008L7.34 3.755h11.475 52.988V93.04h0.057c1.963 0 3.573-1.608 3.573-3.572V3.573C75.434 1.607 73.826 0 71.862 0z" data-fill-palette-color="accent"></path></svg></g></g></svg></g><defs></defs></svg><rect width="395.52" height="247.2" fill="none" stroke="none" visibility="hidden"></rect></g></svg></g></svg>