<svg xmlns="http://www.w3.org/2000/svg" version="1.1" xmlns:xlink="http://www.w3.org/1999/xlink" xmlns:svgjs="http://svgjs.dev/svgjs" width="1000" height="368" viewBox="0 0 1000 368"><g transform="matrix(1,0,0,1,-0.6060606060606233,-0.508991886038956)"><svg viewBox="0 0 396 146" data-background-color="#ffffff" preserveAspectRatio="xMidYMid meet" height="368" width="1000" xmlns="http://www.w3.org/2000/svg" xmlns:xlink="http://www.w3.org/1999/xlink"><g id="tight-bounds" transform="matrix(1,0,0,1,0.2400000000000091,0.20193699826545242)"><svg viewBox="0 0 395.52 145.5961260034691" height="145.5961260034691" width="395.52"><g><svg viewBox="0 0 395.52 145.5961260034691" height="145.5961260034691" width="395.52"><g transform="matrix(1,0,0,1,0,89.9842468970302)"><svg viewBox="0 0 395.52 55.611879106438884" height="55.611879106438884" width="395.52"><g id="textblocktransform"><svg viewBox="0 0 395.52 55.611879106438884" height="55.611879106438884" width="395.52" id="textblock"><g><svg viewBox="0 0 395.52 55.611879106438884" height="55.611879106438884" width="395.52"><g transform="matrix(1,0,0,1,0,0)"><svg width="395.52" viewBox="3.55 -36.9 266.33 37.449999999999996" height="55.611879106438884" data-palette-color="#001f3f"><path d="M26.75-27.95L26.75-27.95Q26.75-26.1 26.03-24.38 25.3-22.65 23.93-21.43 22.55-20.2 20.6-19.85L20.6-19.85Q23.1-19.5 24.83-18.13 26.55-16.75 27.48-14.7 28.4-12.65 28.4-10.2L28.4-10.2Q28.4-6.95 27.2-4.93 26-2.9 23.95-1.83 21.9-0.75 19.35-0.38 16.8 0 14.15 0L14.15 0 4.25 0 4.25-33.1Q4.25-33.15 4.08-33.9 3.9-34.65 3.75-35.45 3.6-36.25 3.55-36.4L3.55-36.4 15.7-36.4Q17.85-36.4 19.83-36.02 21.8-35.65 23.38-34.7 24.95-33.75 25.85-32.13 26.75-30.5 26.75-27.95ZM21.9-27.85L21.9-27.85Q21.9-29.85 21.03-30.95 20.15-32.05 18.7-32.5 17.25-32.95 15.55-32.95L15.55-32.95 8.9-32.95 8.9-21.35 14.25-21.35Q17.75-21.35 19.83-22.78 21.9-24.2 21.9-27.85ZM23.45-10.95L23.45-10.95Q23.45-13.5 22.13-15.03 20.8-16.55 18.73-17.23 16.65-17.9 14.45-17.9L14.45-17.9 8.9-17.9 8.9-3.45 14.45-3.45Q17.1-3.45 19.13-4.08 21.15-4.7 22.3-6.35 23.45-8 23.45-10.95ZM49.1 0.55L49.1 0.55Q45.05 0.55 42.02-0.95 39-2.45 37-5.08 35-7.7 34-11.05 33-14.4 33-18.15L33-18.15Q33-21.9 33.97-25.28 34.95-28.65 36.95-31.28 38.95-33.9 42-35.4 45.05-36.9 49.15-36.9L49.15-36.9Q53.25-36.9 56.27-35.4 59.3-33.9 61.3-31.28 63.3-28.65 64.27-25.28 65.25-21.9 65.25-18.15L65.25-18.15Q65.25-14.4 64.25-11.03 63.25-7.65 61.25-5.05 59.25-2.45 56.22-0.95 53.2 0.55 49.1 0.55ZM49.15-2.85L49.15-2.85Q52.35-2.85 54.5-4.2 56.65-5.55 57.95-7.8 59.25-10.05 59.82-12.75 60.4-15.45 60.4-18.15L60.4-18.15Q60.4-20.85 59.82-23.55 59.25-26.25 57.95-28.48 56.65-30.7 54.47-32.05 52.3-33.4 49.15-33.4L49.15-33.4Q46-33.4 43.82-32.05 41.65-30.7 40.37-28.45 39.1-26.2 38.52-23.5 37.95-20.8 37.95-18.1L37.95-18.1Q37.95-15.4 38.52-12.73 39.1-10.05 40.37-7.8 41.65-5.55 43.82-4.2 46-2.85 49.15-2.85ZM85.95 0.55L85.95 0.55Q81.9 0.55 78.87-0.95 75.84-2.45 73.84-5.08 71.84-7.7 70.84-11.05 69.84-14.4 69.84-18.15L69.84-18.15Q69.84-21.9 70.82-25.28 71.8-28.65 73.8-31.28 75.8-33.9 78.84-35.4 81.9-36.9 86-36.9L86-36.9Q90.09-36.9 93.12-35.4 96.15-33.9 98.15-31.28 100.15-28.65 101.12-25.28 102.09-21.9 102.09-18.15L102.09-18.15Q102.09-14.4 101.09-11.03 100.09-7.65 98.09-5.05 96.09-2.45 93.07-0.95 90.05 0.55 85.95 0.55ZM86-2.85L86-2.85Q89.2-2.85 91.34-4.2 93.5-5.55 94.8-7.8 96.09-10.05 96.67-12.75 97.25-15.45 97.25-18.15L97.25-18.15Q97.25-20.85 96.67-23.55 96.09-26.25 94.8-28.48 93.5-30.7 91.32-32.05 89.15-33.4 86-33.4L86-33.4Q82.84-33.4 80.67-32.05 78.5-30.7 77.22-28.45 75.95-26.2 75.37-23.5 74.8-20.8 74.8-18.1L74.8-18.1Q74.8-15.4 75.37-12.73 75.95-10.05 77.22-7.8 78.5-5.55 80.67-4.2 82.84-2.85 86-2.85ZM108.69-33.1L107.99-36.4 113.34-36.4 113.34-20.15 127.79-36.4 132.64-36.4 118.29-20.2 133.54 0 127.74 0 113.34-18.95 113.34 0 108.69 0 108.69-33.1ZM145.54 0L145.54-32.95 134.74-32.95 134.74-36.4 161.24-36.4 161.24-32.95 150.29-32.95 150.29 0 145.54 0ZM178.59 0.55L178.59 0.55Q174.54 0.55 171.51-0.95 168.49-2.45 166.49-5.08 164.49-7.7 163.49-11.05 162.49-14.4 162.49-18.15L162.49-18.15Q162.49-21.9 163.46-25.28 164.44-28.65 166.44-31.28 168.44-33.9 171.49-35.4 174.54-36.9 178.64-36.9L178.64-36.9Q182.74-36.9 185.76-35.4 188.79-33.9 190.79-31.28 192.79-28.65 193.76-25.28 194.74-21.9 194.74-18.15L194.74-18.15Q194.74-14.4 193.74-11.03 192.74-7.65 190.74-5.05 188.74-2.45 185.71-0.95 182.69 0.55 178.59 0.55ZM178.64-2.85L178.64-2.85Q181.84-2.85 183.99-4.2 186.14-5.55 187.44-7.8 188.74-10.05 189.31-12.75 189.89-15.45 189.89-18.15L189.89-18.15Q189.89-20.85 189.31-23.55 188.74-26.25 187.44-28.48 186.14-30.7 183.96-32.05 181.79-33.4 178.64-33.4L178.64-33.4Q175.49-33.4 173.31-32.05 171.14-30.7 169.86-28.45 168.59-26.2 168.01-23.5 167.44-20.8 167.44-18.1L167.44-18.1Q167.44-15.4 168.01-12.73 168.59-10.05 169.86-7.8 171.14-5.55 173.31-4.2 175.49-2.85 178.64-2.85ZM201.34-33.1L200.59-36.4 211.49-36.4Q215.09-36.4 217.86-35.27 220.64-34.15 222.19-31.75 223.74-29.35 223.74-25.4L223.74-25.4Q223.74-21.75 222.09-19.3 220.44-16.85 217.69-15.63 214.94-14.4 211.54-14.4L211.54-14.4 205.99-14.4 205.99 0 201.34 0 201.34-33.1ZM211.49-32.95L205.99-32.95 205.99-17.8 211.44-17.8Q214.89-17.8 216.89-19.9 218.89-22 218.89-25.4L218.89-25.4Q218.89-28.95 216.99-30.95 215.09-32.95 211.49-32.95L211.49-32.95ZM229.43-36.4L229.43-36.4 234.78-36.4 234.78 0 230.13 0 230.13-33.1Q230.13-33.15 229.96-33.9 229.78-34.65 229.63-35.45 229.48-36.25 229.43-36.4ZM252.73-36.4L257.28-36.4 269.88 0 264.73 0 260.53-12.5 248.53-12.5 244.28 0 240.08 0 252.73-36.4ZM259.38-15.9L254.58-30.3 249.68-15.9 259.38-15.9Z" opacity="1" transform="matrix(1,0,0,1,0,0)" fill="#001f3f" class="wordmark-text-0" data-fill-palette-color="primary" id="text-0"></path></svg></g></svg></g></svg></g></svg></g><g transform="matrix(1,0,0,1,164.36536705560894,0)"><svg viewBox="0 0 66.78926588878213 76.85561692509854" height="76.85561692509854" width="66.78926588878213"><g><svg version="1.1" xmlns="http://www.w3.org/2000/svg" xmlns:xlink="http://www.w3.org/1999/xlink" x="8" y="0" viewBox="0 0 66.084 100" enable-background="new 0 0 66.084 100" xml:space="preserve" width="50.789265888782126" height="76.85561692509854" class="icon-icon-0" data-fill-palette-color="accent" id="icon-0"><path d="M19.354 0L0 6.911v66.004L47.722 100l4.081-1.458V95.92l10.201-3.644v2.623l4.08-1.457V26.551L19.354 0zM62.003 87.944l-10.2 3.643-0.001-59.936L9.755 7.761l9.209-3.29 43.039 24.455V87.944z" fill="#111111" data-fill-palette-color="accent"></path></svg></g></svg></g><g><rect width="164.36536705560894" height="5.015136649277896" y="70.84048027582065" x="231.15463294439107" fill="#111111" data-fill-palette-color="accent"></rect><rect width="164.36536705560894" height="5.015136649277896" y="70.84048027582065" x="0" fill="#111111" data-fill-palette-color="accent"></rect><rect width="164.36536705560894" height="5.015136649277896" y="60.810206977264855" x="231.15463294439107" fill="#111111" data-fill-palette-color="accent"></rect><rect width="164.36536705560894" height="5.015136649277896" y="60.810206977264855" x="0" fill="#111111" data-fill-palette-color="accent"></rect></g></svg></g><defs></defs></svg><rect width="395.52" height="145.5961260034691" fill="none" stroke="none" visibility="hidden"></rect></g></svg></g></svg>